<svg xmlns="http://www.w3.org/2000/svg" xmlns:xlink="http://www.w3.org/1999/xlink" version="1.1" x="0px" y="0px" viewBox="0 0 100 125" enable-background="new 0 0 100 100" xml:space="preserve" fill="#E4E4E4">
	<g>
		<path d="M98.344,46.724c-0.021-0.078-0.047-0.153-0.073-0.229c-0.078-0.224-0.178-0.44-0.301-0.643   c-0.03-0.05-0.052-0.103-0.083-0.151c-0.144-0.211-0.305-0.411-0.494-0.587L85.54,34.042V12.818H62.818L52.357,3.044   c-0.655-0.611-1.489-0.917-2.325-0.917s-1.67,0.306-2.324,0.917l-10.464,9.773h-22.72v21.221L2.668,45.113   c-0.189,0.176-0.35,0.376-0.493,0.587c-0.032,0.048-0.055,0.102-0.085,0.151c-0.123,0.203-0.223,0.419-0.301,0.643   c-0.026,0.077-0.051,0.151-0.073,0.229c-0.075,0.284-0.128,0.577-0.128,0.876v48.009c0,0.054,0.013,0.104,0.016,0.156   c0.003,0.077,0.014,0.146,0.022,0.222c0.031,0.272,0.088,0.535,0.179,0.784c0.01,0.028,0.008,0.059,0.02,0.087   c0.003,0.01,0.012,0.017,0.015,0.026c0.115,0.281,0.271,0.537,0.452,0.774c0.043,0.059,0.088,0.11,0.134,0.163   c0.189,0.22,0.396,0.421,0.634,0.587c0.008,0.003,0.014,0.012,0.022,0.017c0.244,0.166,0.517,0.289,0.802,0.388   c0.067,0.022,0.132,0.043,0.201,0.062c0.291,0.081,0.591,0.14,0.908,0.14h90.076c0.318,0,0.617-0.059,0.908-0.14   c0.068-0.019,0.135-0.039,0.201-0.062c0.284-0.099,0.559-0.222,0.801-0.388c0.009-0.005,0.014-0.012,0.021-0.017   c0.24-0.166,0.447-0.369,0.637-0.589c0.045-0.053,0.09-0.103,0.132-0.159c0.183-0.239,0.339-0.497,0.454-0.779   c0.003-0.009,0.01-0.016,0.013-0.023c0.011-0.025,0.009-0.052,0.017-0.078c0.094-0.251,0.153-0.518,0.184-0.795   c0.008-0.073,0.02-0.145,0.022-0.22c0.002-0.053,0.016-0.103,0.016-0.156V47.6C98.474,47.301,98.42,47.008,98.344,46.724z    M85.54,39.865l8.282,7.735l-8.282,7.737V39.865z M50.033,6.697l6.552,6.121H43.479L50.033,6.697z M49.952,19.829   c13.822,0,23.286,6.111,23.286,23.187c0,10.167-2.152,13.121-9.765,13.121c-5.608,0-7.012-1.903-7.512-3.806   c-0.762,1.104-1.706,1.992-3.199,2.596l-2.149-2.009c-0.328-0.306-0.834-0.306-1.162,0l-3.041,2.84   c-7.929-0.295-10.13-5.972-10.13-13.042c0-7.211,2.554-12.972,11.167-12.972c5.059,0,6.811,1.002,8.063,3.054l1.752-2.653   l4.608,0.4v18.029c0.05,2.103,0.45,3.656,3.255,3.656c3.556,0,3.807-2.253,3.807-9.215c0-14.224-7.161-19.081-18.98-19.081   c-11.218,0-18.779,4.857-18.779,19.081c0,9.8,3.693,15.121,10.27,17.384l-3.526,3.293c-7.185-3.018-11.051-9.43-11.051-20.677   C26.866,25.939,36.481,19.829,49.952,19.829z M65.777,62.646c-1.021,0.511-2.121,0.968-3.286,1.366l-3.511-3.279   c1.863-0.459,3.584-1.048,4.993-1.742L65.777,62.646z M14.524,39.864V55.34L6.239,47.6L14.524,39.864z M5.843,49.562l23.601,22.043   L5.843,93.649V49.562z M7.15,94.759l42.883-40.054l42.878,40.054H7.15z M94.218,93.648l-23.6-22.043l23.6-22.043V93.648z"/><path d="M48.801,36.003c-4.307,0-5.509,2.707-5.509,6.713c0,4.056,1.202,7.211,5.509,7.211c4.406,0,6.16-2.304,6.16-7.211   C54.961,37.909,53.458,36.003,48.801,36.003z"/>
	</g>
</svg>